<?xml version="1.0" encoding="utf-8"?>
<!-- Generator: Adobe Illustrator 16.0.4, SVG Export Plug-In . SVG Version: 6.00 Build 0)  -->
<!DOCTYPE svg PUBLIC "-//W3C//DTD SVG 1.1//EN" "http://www.w3.org/Graphics/SVG/1.1/DTD/svg11.dtd">
<svg version="1.1" id="Santana_Regular_und_Bold" xmlns="http://www.w3.org/2000/svg" xmlns:xlink="http://www.w3.org/1999/xlink"
	 x="0px" y="0px" width="364.269px" height="180.042px" viewBox="0 0 364.269 180.042" enable-background="new 0 0 364.269 180.042"
	 xml:space="preserve">
<radialGradient id="SVGID_1_" cx="123.9287" cy="125.3203" r="64.3447" gradientUnits="userSpaceOnUse">
	<stop  offset="0" style="stop-color:#FFFFFF"/>
	<stop  offset="0.7728" style="stop-color:#009DDE"/>
	<stop  offset="0.9948" style="stop-color:#3072B2"/>
</radialGradient>
<radialGradient id="SVGID_2_" cx="127.0825" cy="81.9346" r="64.9568" gradientUnits="userSpaceOnUse">
	<stop  offset="0" style="stop-color:#FFFFFF"/>
	<stop  offset="0.8887" style="stop-color:#009DDE"/>
	<stop  offset="1" style="stop-color:#3072B2"/>
</radialGradient>
<path fill="url(#SVGID_1_)" stroke="url(#SVGID_2_)" stroke-width="1.6179" stroke-miterlimit="10" d="M118.925,6.121
	c0,0,2.334,8.269,2.334,16.339c0,9.12-3.6,19.435-11.851,31.599c-8.406,12.392-18.151,26.934-21.546,32.499
	c-3.416,5.6-8.259,13.465-8.259,26.751c0,13.286,5.385,19.21,9.515,23.521c4.131,4.311,11.134,7.903,16.52,8.62
	c5.387,0.717,8.617,0,8.617,0s-15.261-6.822-15.261-20.649c0-13.825,7.705-22.731,11.999-29.173
	c3.979-5.971,5.503-9.037,6.674-12.839c1.089-3.538,1.975-9.158,1.975-9.158s4.131,10.953,4.131,18.853
	c0,5.889-0.778,10.324-1.797,14.723c-1.022,4.416-3.051,12.03-3.051,12.03s4.487-0.359,8.976-3.413c4.489-3.052,8.08-7.9,8.08-7.9
	s0.898,4.848,0.898,8.978c0,3.313-0.898,5.927-2.873,9.517s-6.284,7.9-6.284,7.9s5.711,1.358,10.773-0.898
	c6.365-2.84,10.592-5.746,10.592-5.746s1.285,11.198-6.147,17.266c-6.157,5.026-13.045,8.646-22.904,9.151
	c-7.709,0.396-25.529-2.537-25.529-2.537s10.056,7.721,31.78,7.721c21.723,0,28.66-7.994,34.096-15.194
	c5.462-7.23,8.463-13.561,10.617-21.642c2.156-8.08,3.046-14.694,3.403-18.644s0-8.439,0-8.439s-2.645,5.443-7.36,8.978
	c-3.795,2.843-11.311,3.589-11.311,3.589s3.235-4.646,5.612-12.079c2.321-7.259,2.781-10.517,2.528-16.281
	c-0.26-5.919-0.959-8.627-2.037-11.319c-1.078-2.693-3.052-6.643-3.052-6.643s0.39,7.55-1.796,12.029
	c-1.661,3.405-3.59,5.566-6.642,6.644c-3.054,1.078-8.448,0.542-10.415-3.591c-2.503-5.261-2.384-16.258-1.845-23.26
	c0.538-7.002,1.011-16.988-0.81-23.157c-1.803-6.108-4.887-11.216-8.657-15.166C124.85,11.148,118.925,6.121,118.925,6.121z"/>
<g>
	<path fill="#FFFFFF" d="M44.52,56.142c-1.028-0.56-2.289-1.05-3.78-1.47c-1.494-0.42-3.36-0.63-5.6-0.63
		c-3.454,0-6.254,0.708-8.4,2.122c-2.148,1.413-3.828,3.298-5.04,5.652c-1.214,2.356-2.054,5.112-2.52,8.269
		c-0.468,3.159-0.7,6.434-0.7,9.824v3.393h19.74l-1.4,5.46H18.48v73.5c0,2.24-0.21,4.432-0.63,6.58
		c-0.42,2.146-0.91,4.061-1.47,5.74s-1.26,3.5-2.1,5.46l-6.86-1.4c0.84-1.868,1.54-3.569,2.1-5.109c0.56-1.54,1.05-3.29,1.47-5.25
		s0.63-3.92,0.63-5.88V88.762H0l1.4-5.46h10.22v-3.22c0-5.786,0.63-10.802,1.89-15.05c1.26-4.246,3.336-7.722,6.23-10.43
		c4.292-4.012,9.612-6.02,15.96-6.02c0.746,0,1.47,0.024,2.17,0.068c0.7,0.043,1.376,0.111,2.03,0.199
		c3.08,0.534,5.366,1.243,6.86,2.131L44.52,56.142z"/>
	<path fill="#FFFFFF" d="M71.818,151.902c-0.84,0-1.96-0.118-3.36-0.351c-1.4-0.233-2.94-0.608-4.62-1.12
		c-1.68-0.512-3.384-1.235-5.11-2.17c-1.728-0.932-3.244-2.1-4.55-3.5c-3.174-3.359-5.11-7.396-5.81-12.109
		c-0.7-4.712-1.05-10.011-1.05-15.891v-66.5h6.86v61.46c0,4.761,0.116,8.729,0.35,11.9c0.232,3.174,0.56,5.81,0.98,7.91
		c0.42,2.1,0.98,3.828,1.68,5.18c0.7,1.354,1.562,2.544,2.59,3.57c1.68,1.773,3.802,3.128,6.37,4.06c2.566,0.935,4.69,1.4,6.37,1.4
		L71.818,151.902z"/>
	<path fill="#FFFFFF" d="M290.017,153.302c-0.097-0.188-0.455-0.934-1.074-2.24c-0.619-1.306-1.286-3.266-1.999-5.88
		c-0.716-2.611-1.072-5.46-1.072-8.54c0-2.331,0-4.852,0-7.56c0-2.706-0.024-5.25-0.07-7.63c-0.048-2.38-0.069-4.362-0.069-5.95
		v-2.38c0-4.2-0.42-7.84-1.26-10.92c-0.841-3.08-2.055-5.692-3.641-7.84c-3.359-4.572-8.26-6.86-14.7-6.86
		c-2.334,0-4.527,0.398-6.58,1.19c-2.054,0.794-3.92,1.82-5.6,3.08c-1.68,1.261-3.15,2.709-4.41,4.341
		c-1.26,1.634-2.264,3.29-3.01,4.97c-0.374,0.934-0.7,1.938-0.98,3.01c-0.279,1.074-0.42,2.265-0.42,3.57v42.84h-6.859v-40.88
		c0-6.626-1.658-11.97-4.971-16.03c-3.313-4.06-7.817-6.09-13.51-6.09c-2.52,0-4.899,0.468-7.14,1.4
		c-2.24,0.934-4.248,2.124-6.021,3.569c-1.773,1.448-3.313,3.104-4.62,4.971c-1.308,1.868-2.334,3.733-3.079,5.6
		c-0.374,0.934-0.679,1.96-0.91,3.08c-0.234,1.12-0.351,2.288-0.351,3.5v40.88h-6.859v-50.96c0-2.706-0.049-5.412-0.141-8.12
		c-0.094-2.706-0.234-5.412-0.42-8.12h6.44l0.56,13.021h0.28c2.431-4.2,5.539-7.7,9.323-10.5c3.784-2.8,8.763-4.2,14.932-4.2
		c2.616,0,5.07,0.42,7.361,1.26c2.29,0.84,4.322,2.008,6.099,3.5c1.776,1.494,3.318,3.198,4.626,5.11
		c1.309,1.914,2.339,3.943,3.087,6.09h0.28c1.028-2.052,2.126-3.85,3.294-5.39s2.406-2.87,3.717-3.99
		c2.428-2.146,5.047-3.78,7.851-4.9c2.805-1.12,6.309-1.68,10.516-1.68c1.588,0,3.736,0.328,6.449,0.98
		c2.71,0.654,5.374,2.054,7.99,4.2c2.616,2.148,4.885,5.298,6.801,9.45c1.917,4.154,2.875,9.73,2.875,16.73v23.659
		c0,1.774,0.372,3.78,1.12,6.021c0.745,2.24,1.422,4.06,2.029,5.46c0.606,1.399,0.956,2.194,1.051,2.38L290.017,153.302z"/>
	<path fill="#FFFFFF" d="M364.269,115.222c0,0.561-0.094,1.12-0.277,1.681h-55.442c0,4.947,0.722,9.239,2.17,12.88
		c1.446,3.64,3.452,6.698,6.021,9.17c2.565,2.474,5.575,4.318,9.029,5.53c3.452,1.214,7.187,1.819,11.2,1.819
		c2.986,0,5.601-0.14,7.84-0.42l0.561,5.74c-1.309,0.186-2.73,0.326-4.271,0.42c-1.54,0.092-3.149,0.14-4.83,0.14
		c-5.228,0-9.964-0.84-14.21-2.52c-4.248-1.68-7.87-4.012-10.869-7c-2.999-2.986-5.333-6.532-7-10.641
		c-1.667-4.105-2.501-8.586-2.501-13.439c0-5.692,0.858-10.826,2.577-15.4c1.72-4.571,4.064-8.445,7.04-11.62
		c2.973-3.171,6.503-5.622,10.592-7.35c4.088-1.726,8.502-2.59,13.243-2.59c6.223,0,11.239,1.19,15.05,3.57s6.759,5.25,8.851,8.61
		c2.091,3.36,3.484,6.79,4.183,10.29c0.695,3.5,1.045,6.37,1.045,8.61C364.269,113.73,364.269,114.57,364.269,115.222z
		 M356.709,104.685c-0.468-2.721-1.519-5.396-3.15-8.025c-1.634-2.63-3.968-4.883-7-6.76c-3.034-1.877-7.069-2.817-12.109-2.817
		c-4.294,0-7.98,0.798-11.061,2.395c-3.08,1.598-5.624,3.591-7.63,5.983c-2.008,2.394-3.57,5.022-4.689,7.886
		c-1.12,2.863-1.868,5.563-2.24,8.097h48.58C357.41,109.659,357.175,107.406,356.709,104.685z"/>
</g>
<rect x="14.059" y="5.738" fill="none" width="117.397" height="43.731"/>
<text transform="matrix(1 0 0 1 14.0586 42.6865)" fill="#009DDE" font-family="'Santana-Bold'" font-size="51" letter-spacing="-2">blue</text>
</svg>
