<?xml version="1.0" encoding="utf-8"?>
<!-- Generator: Adobe Illustrator 16.0.4, SVG Export Plug-In . SVG Version: 6.00 Build 0)  -->
<!DOCTYPE svg PUBLIC "-//W3C//DTD SVG 1.1//EN" "http://www.w3.org/Graphics/SVG/1.1/DTD/svg11.dtd">
<svg version="1.1" id="Santana_Regular_und_Bold" xmlns="http://www.w3.org/2000/svg" xmlns:xlink="http://www.w3.org/1999/xlink"
	 x="0px" y="0px" width="365.406px" height="177.167px" viewBox="0 0 365.406 177.167" enable-background="new 0 0 365.406 177.167"
	 xml:space="preserve">
<radialGradient id="SVGID_1_" cx="124.0093" cy="122.3364" r="64.3447" gradientUnits="userSpaceOnUse">
	<stop  offset="0" style="stop-color:#FFFFFF"/>
	<stop  offset="0.7728" style="stop-color:#009DDE"/>
	<stop  offset="0.9948" style="stop-color:#3072B2"/>
</radialGradient>
<radialGradient id="SVGID_2_" cx="127.1631" cy="78.9507" r="64.9568" gradientUnits="userSpaceOnUse">
	<stop  offset="0" style="stop-color:#FFFFFF"/>
	<stop  offset="0.8887" style="stop-color:#009DDE"/>
	<stop  offset="1" style="stop-color:#3072B2"/>
</radialGradient>
<path fill="url(#SVGID_1_)" stroke="url(#SVGID_2_)" stroke-width="1.6179" stroke-miterlimit="10" d="M119.006,3.137
	c0,0,2.334,8.269,2.334,16.339c0,9.12-3.6,19.435-11.851,31.599c-8.406,12.392-18.151,26.934-21.546,32.499
	c-3.416,5.6-8.259,13.465-8.259,26.751c0,13.286,5.385,19.21,9.515,23.521c4.131,4.311,11.134,7.903,16.52,8.62
	c5.387,0.717,8.617,0,8.617,0s-15.261-6.822-15.261-20.649c0-13.825,7.705-22.731,11.999-29.173
	c3.979-5.971,5.503-9.037,6.674-12.839c1.089-3.538,1.975-9.158,1.975-9.158s4.131,10.953,4.131,18.853
	c0,5.889-0.778,10.324-1.797,14.723c-1.022,4.416-3.051,12.03-3.051,12.03s4.487-0.359,8.976-3.413c4.489-3.052,8.08-7.9,8.08-7.9
	s0.898,4.848,0.898,8.978c0,3.313-0.898,5.927-2.873,9.517s-6.284,7.9-6.284,7.9s5.711,1.358,10.773-0.898
	c6.365-2.84,10.592-5.746,10.592-5.746s1.285,11.198-6.147,17.266c-6.157,5.026-13.045,8.646-22.904,9.151
	c-7.709,0.396-25.529-2.537-25.529-2.537s10.056,7.721,31.78,7.721c21.723,0,28.66-7.994,34.096-15.194
	c5.462-7.23,8.463-13.561,10.617-21.642c2.156-8.08,3.046-14.694,3.403-18.644s0-8.439,0-8.439s-2.645,5.443-7.36,8.978
	c-3.795,2.843-11.311,3.589-11.311,3.589s3.235-4.646,5.612-12.079c2.321-7.259,2.781-10.517,2.528-16.281
	c-0.26-5.919-0.959-8.627-2.037-11.319c-1.078-2.693-3.052-6.643-3.052-6.643s0.39,7.55-1.796,12.029
	c-1.661,3.405-3.59,5.566-6.642,6.644c-3.054,1.078-8.448,0.542-10.415-3.591c-2.503-5.261-2.384-16.258-1.845-23.26
	c0.538-7.002,1.011-16.988-0.81-23.157c-1.803-6.108-4.887-11.216-8.657-15.166C124.931,8.165,119.006,3.137,119.006,3.137z"/>
<g>
	<path d="M44.601,53.158c-1.028-0.56-2.289-1.05-3.78-1.47c-1.494-0.42-3.36-0.63-5.6-0.63c-3.454,0-6.254,0.708-8.4,2.122
		c-2.148,1.413-3.828,3.298-5.04,5.652c-1.214,2.356-2.054,5.112-2.52,8.269c-0.468,3.159-0.7,6.434-0.7,9.824v3.393H38.3l-1.4,5.46
		h-18.34v73.5c0,2.24-0.21,4.432-0.63,6.58c-0.42,2.146-0.91,4.061-1.47,5.74s-1.26,3.5-2.1,5.46l-6.86-1.4
		c0.84-1.868,1.54-3.569,2.1-5.109c0.56-1.54,1.05-3.29,1.47-5.25s0.63-3.92,0.63-5.88V85.778H0.081l1.4-5.46H11.7v-3.22
		c0-5.786,0.63-10.802,1.89-15.05c1.26-4.246,3.336-7.722,6.23-10.43c4.292-4.012,9.612-6.02,15.96-6.02
		c0.746,0,1.47,0.024,2.17,0.068c0.7,0.043,1.376,0.111,2.03,0.199c3.08,0.534,5.366,1.243,6.86,2.131L44.601,53.158z"/>
	<path d="M71.898,148.918c-0.84,0-1.96-0.118-3.36-0.351c-1.4-0.233-2.94-0.608-4.62-1.12c-1.68-0.512-3.384-1.235-5.11-2.17
		c-1.728-0.932-3.244-2.1-4.55-3.5c-3.174-3.359-5.11-7.396-5.81-12.109c-0.7-4.712-1.05-10.011-1.05-15.891v-66.5h6.86v61.46
		c0,4.761,0.116,8.729,0.35,11.9c0.232,3.174,0.56,5.81,0.98,7.91c0.42,2.1,0.98,3.828,1.68,5.18c0.7,1.354,1.562,2.544,2.59,3.57
		c1.68,1.773,3.802,3.128,6.37,4.06c2.566,0.935,4.69,1.4,6.37,1.4L71.898,148.918z"/>
	<path d="M290.098,150.318c-0.097-0.188-0.455-0.934-1.074-2.24c-0.619-1.306-1.286-3.266-1.999-5.88
		c-0.716-2.611-1.072-5.46-1.072-8.54c0-2.331,0-4.852,0-7.56c0-2.706-0.024-5.25-0.07-7.63c-0.048-2.38-0.069-4.362-0.069-5.95
		v-2.38c0-4.2-0.42-7.84-1.26-10.92c-0.841-3.08-2.055-5.692-3.641-7.84c-3.359-4.572-8.26-6.86-14.7-6.86
		c-2.334,0-4.527,0.398-6.58,1.19c-2.054,0.794-3.92,1.82-5.6,3.08c-1.68,1.261-3.15,2.709-4.41,4.341
		c-1.26,1.634-2.264,3.29-3.01,4.97c-0.374,0.934-0.7,1.938-0.98,3.01c-0.279,1.074-0.42,2.265-0.42,3.57v42.84h-6.859v-40.88
		c0-6.626-1.658-11.97-4.971-16.03c-3.313-4.06-7.817-6.09-13.51-6.09c-2.52,0-4.899,0.468-7.14,1.4
		c-2.24,0.934-4.248,2.124-6.021,3.569c-1.773,1.448-3.313,3.104-4.62,4.971c-1.308,1.868-2.334,3.733-3.079,5.6
		c-0.374,0.934-0.679,1.96-0.91,3.08c-0.234,1.12-0.351,2.288-0.351,3.5v40.88h-6.859v-50.96c0-2.706-0.049-5.412-0.141-8.12
		c-0.094-2.706-0.234-5.412-0.42-8.12h6.44l0.56,13.021h0.28c2.431-4.2,5.539-7.7,9.323-10.5c3.784-2.8,8.763-4.2,14.932-4.2
		c2.616,0,5.07,0.42,7.361,1.26c2.29,0.84,4.322,2.008,6.099,3.5c1.776,1.494,3.318,3.198,4.626,5.11
		c1.309,1.914,2.339,3.943,3.087,6.09h0.28c1.028-2.052,2.126-3.85,3.294-5.39s2.406-2.87,3.717-3.99
		c2.428-2.146,5.047-3.78,7.851-4.9c2.805-1.12,6.309-1.68,10.516-1.68c1.588,0,3.736,0.328,6.449,0.98
		c2.71,0.654,5.374,2.054,7.99,4.2c2.616,2.148,4.885,5.298,6.801,9.45c1.917,4.154,2.875,9.73,2.875,16.73v23.659
		c0,1.774,0.372,3.78,1.12,6.021c0.745,2.24,1.422,4.06,2.029,5.46c0.606,1.399,0.956,2.194,1.051,2.38L290.098,150.318z"/>
	<path d="M364.35,112.238c0,0.561-0.094,1.12-0.277,1.681H308.63c0,4.947,0.722,9.239,2.17,12.88c1.446,3.64,3.452,6.698,6.021,9.17
		c2.565,2.474,5.575,4.318,9.029,5.53c3.452,1.214,7.187,1.819,11.2,1.819c2.986,0,5.601-0.14,7.84-0.42l0.561,5.74
		c-1.309,0.186-2.73,0.326-4.271,0.42c-1.54,0.092-3.149,0.14-4.83,0.14c-5.228,0-9.964-0.84-14.21-2.52
		c-4.248-1.68-7.87-4.012-10.869-7c-2.999-2.986-5.333-6.532-7-10.641c-1.667-4.105-2.501-8.586-2.501-13.439
		c0-5.692,0.858-10.826,2.577-15.4c1.72-4.571,4.064-8.445,7.04-11.62c2.973-3.171,6.503-5.622,10.592-7.35
		c4.088-1.726,8.502-2.59,13.243-2.59c6.223,0,11.239,1.19,15.05,3.57s6.759,5.25,8.851,8.61c2.091,3.36,3.484,6.79,4.183,10.29
		c0.695,3.5,1.045,6.37,1.045,8.61C364.35,110.747,364.35,111.586,364.35,112.238z M356.79,101.701
		c-0.468-2.721-1.519-5.396-3.15-8.025c-1.634-2.63-3.968-4.883-7-6.76c-3.034-1.877-7.069-2.817-12.109-2.817
		c-4.294,0-7.98,0.798-11.061,2.395c-3.08,1.598-5.624,3.591-7.63,5.983c-2.008,2.394-3.57,5.022-4.689,7.886
		c-1.12,2.863-1.868,5.563-2.24,8.097h48.58C357.49,106.675,357.256,104.422,356.79,101.701z"/>
</g>
<g>
	<path fill="#009DDE" d="M43.643,32.741c-0.731,1.683-1.683,3.085-2.856,4.208s-2.499,1.963-3.978,2.524s-2.983,0.841-4.514,0.841
		c-1.632,0-3.196-0.332-4.692-0.994c-1.497-0.663-2.791-1.658-3.884-2.984c-0.035,0.646-0.078,1.242-0.13,1.785
		c-0.052,0.544-0.095,1.14-0.129,1.785c0,0.204-0.122,0.306-0.364,0.306l-5.234-0.51c-0.136,0-0.204-0.119-0.204-0.357
		c0.068-0.816,0.11-1.818,0.127-3.009c0.017-1.189,0.025-2.43,0.025-3.723V3.493c0-0.204,0.102-0.306,0.306-0.306h6.069
		c0.204,0,0.306,0.102,0.306,0.306l0.102,14.331c0.884-1.122,2.031-2.015,3.442-2.678c1.411-0.663,3.102-0.994,5.075-0.994
		c1.666,0,3.213,0.306,4.641,0.918c1.428,0.612,2.66,1.471,3.698,2.575c1.037,1.105,1.844,2.44,2.422,4.003
		c0.578,1.564,0.867,3.298,0.867,5.202C44.739,29.095,44.374,31.058,43.643,32.741z M27.042,20.552
		c-1.224,0.867-2.04,2.083-2.448,3.646v-0.051c-0.069,0.273-0.12,0.544-0.153,0.816c-0.034,0.272-0.051,0.561-0.051,0.867v3.162
		c0,0.17,0.008,0.391,0.025,0.663c0.017,0.272,0.059,0.51,0.127,0.714c0.17,0.612,0.442,1.199,0.816,1.759
		c0.374,0.561,0.833,1.055,1.377,1.479c0.543,0.426,1.164,0.774,1.861,1.046c0.696,0.272,1.454,0.408,2.27,0.408
		c2.209,0,3.96-0.705,5.253-2.116c1.292-1.411,1.938-3.374,1.938-5.891c0-1.054-0.153-2.057-0.459-3.009
		c-0.306-0.951-0.757-1.785-1.352-2.499c-0.595-0.714-1.326-1.275-2.193-1.683c-0.867-0.408-1.879-0.612-3.035-0.612
		C29.592,19.251,28.266,19.685,27.042,20.552z"/>
	<path fill="#009DDE" d="M60.039,39.907c0,0.169-0.102,0.255-0.306,0.255c-0.748,0-1.522-0.06-2.32-0.179
		c-0.799-0.119-1.59-0.297-2.372-0.535c-0.783-0.238-1.545-0.552-2.289-0.944c-0.743-0.39-1.392-0.875-1.945-1.453
		c-1.21-1.19-2.057-2.686-2.539-4.488c-0.483-1.802-0.724-3.943-0.724-6.426V3.493c0-0.204,0.102-0.306,0.306-0.306h6.069
		c0.204,0,0.306,0.102,0.306,0.306v20.655c0,1.428,0.034,2.644,0.102,3.646c0.068,1.003,0.161,1.845,0.28,2.525
		s0.281,1.232,0.485,1.657c0.204,0.426,0.459,0.791,0.765,1.097c0.543,0.544,1.224,0.952,2.04,1.224
		c0.816,0.272,1.632,0.442,2.448,0.51c0.204,0,0.306,0.12,0.306,0.357L60.039,39.907z"/>
	<path fill="#009DDE" d="M80.005,40.366c-0.174,0-0.295-0.085-0.363-0.255c0-0.035-0.035-0.204-0.104-0.51
		c-0.069-0.306-0.147-0.654-0.233-1.045c-0.087-0.391-0.147-0.671-0.182-0.841c-0.069-0.238-0.112-0.595-0.13-1.071
		c-0.017-0.476-0.025-0.798-0.025-0.969c-0.312,0.51-0.705,1.029-1.182,1.555c-0.477,0.528-1.071,1.012-1.785,1.454
		c-0.714,0.442-1.539,0.808-2.473,1.097c-0.936,0.288-2.015,0.433-3.239,0.433c-1.122,0-2.244-0.17-3.366-0.51
		c-1.122-0.339-2.142-0.926-3.06-1.759c-0.918-0.833-1.667-1.98-2.244-3.443c-0.579-1.461-0.867-3.315-0.867-5.559V14.917
		c0-0.204,0.102-0.306,0.306-0.306h5.916c0.204,0,0.306,0.102,0.306,0.306v12.954c0,2.142,0.39,3.834,1.173,5.075
		c0.782,1.241,2.091,1.861,3.927,1.861c1.359,0,2.516-0.382,3.468-1.147c0.952-0.765,1.614-1.589,1.989-2.474h-0.051
		c0.102-0.271,0.187-0.561,0.255-0.867c0.068-0.306,0.102-0.646,0.102-1.02V14.917c0-0.204,0.102-0.306,0.306-0.306h6.069
		c0.204,0,0.306,0.102,0.306,0.306v17.238c0,1.428,0.068,2.746,0.204,3.952c0.135,1.208,0.306,2.253,0.51,3.137
		c0.068,0.17-0.018,0.289-0.255,0.357L80.005,40.366z"/>
	<path fill="#009DDE" d="M112.313,27.845c-0.035,0.425-0.085,0.757-0.153,0.995c-0.068,0.17-0.17,0.255-0.306,0.255H93.953
		c0.136,0.918,0.459,1.751,0.969,2.499c0.51,0.748,1.13,1.386,1.861,1.913c0.731,0.527,1.556,0.943,2.474,1.25
		c0.918,0.306,1.869,0.459,2.856,0.459c1.088,0,2.091-0.051,3.009-0.153c0.238,0,0.357,0.069,0.357,0.204l0.663,4.335
		c0,0.17-0.085,0.289-0.255,0.357c-0.714,0.17-1.454,0.272-2.218,0.306c-0.765,0.033-1.539,0.051-2.321,0.051
		c-2.142,0-4.063-0.306-5.763-0.918c-1.701-0.612-3.137-1.47-4.31-2.575c-1.173-1.104-2.065-2.439-2.678-4.003
		c-0.612-1.563-0.918-3.298-0.918-5.202c0-1.666,0.272-3.306,0.816-4.921c0.543-1.615,1.359-3.06,2.448-4.335
		c1.087-1.275,2.448-2.295,4.08-3.06c1.632-0.765,3.536-1.147,5.712-1.147c2.277,0,4.165,0.417,5.661,1.25
		c1.496,0.833,2.685,1.861,3.57,3.085c0.884,1.224,1.504,2.55,1.861,3.978c0.357,1.428,0.536,2.737,0.536,3.927
		C112.364,26.936,112.347,27.42,112.313,27.845z M97.651,19.277c-0.765,0.357-1.403,0.808-1.913,1.351
		c-0.51,0.544-0.901,1.148-1.173,1.811c-0.273,0.663-0.459,1.301-0.561,1.913h12.138c-0.034-0.441-0.136-0.986-0.306-1.632
		c-0.171-0.646-0.468-1.266-0.893-1.862c-0.426-0.594-1.003-1.096-1.734-1.504c-0.732-0.408-1.675-0.612-2.831-0.612
		C99.325,18.742,98.416,18.92,97.651,19.277z"/>
</g>
</svg>
